# xmcd
#
# Track frame offsets: 
#        150
#        19177
#        34180
#        52247
#        65477
#        82569
#        97743
#        113892
#        133523
#        150342
#        168235
#        182435
#
# Disc length: 2658 seconds
#
# Revision: 0
# Processed by: cddbd v1.5.2PL0 Copyright (c) Steve Scherf et al.
# Submitted via: ExactAudioCopy v0.99pb4
#
DISCID=870a600c
DTITLE=The McClymonts - Chaos and Bright Lights
DYEAR=2007
DGENRE=Country
TTITLE0=Don't Tie My Hands
TTITLE1=Favourite Boyfriend of the Year
TTITLE2=Finally Over Blue
TTITLE3=Ghost Town
TTITLE4=Good Cry
TTITLE5=MyLife Again
TTITLE6=Save Yourself
TTITLE7=Settle Down
TTITLE8=Shotgun
TTITLE9=Till You Love Me
TTITLE10=Way Too Late
TTITLE11=You Were Right
EXTD=
EXTT0=
EXTT1=
EXTT2=
EXTT3=
EXTT4=
EXTT5=
EXTT6=
EXTT7=
EXTT8=
EXTT9=
EXTT10=
EXTT11=
PLAYORDER=
